# xmcd
#
# Track frame offsets:
# 150
# 14554
# 28000
# 39070
#
# Disc length: 734 seconds
#
# Revision: 1
# Processed by: cddbd v1.5.2PL0 Copyright (c) Steve Scherf et al.
# Submitted via: CedeCatalogueitor 2.6.0.6 http://personales.ya.com/cdcatalogueitor
#
DISCID=2402dc04
DTITLE=Martina Topley Bird - PROMO
DYEAR=1900
DGENRE=
TTITLE0=Carnies
TTITLE1=Poison
TTITLE2=Baby Blue
TTITLE3=April Grove
EXTD=
EXTT0=
EXTT1=
EXTT2=
EXTT3=
PLAYORDER=
